<svg viewBox="20 40 260 300" xmlns="http://www.w3.org/2000/svg"><path d="M44 340 C50 284 96 264 150 264 C204 264 250 284 256 340 Z" fill="#E1A93A"/><g stroke="#C98F25" stroke-width="2" opacity=".6"><path d="M70 300 L70 340"/><path d="M82 300 L82 340"/><path d="M94 300 L94 340"/><path d="M106 300 L106 340"/><path d="M118 300 L118 340"/><path d="M130 300 L130 340"/><path d="M142 300 L142 340"/><path d="M154 300 L154 340"/><path d="M166 300 L166 340"/><path d="M178 300 L178 340"/><path d="M190 300 L190 340"/><path d="M202 300 L202 340"/><path d="M214 300 L214 340"/><path d="M226 300 L226 340"/><path d="M238 300 L238 340"/></g><path d="M84 272 C96 300 104 322 108 340" stroke="#3F4756" stroke-width="12" fill="none" stroke-linecap="round"/><rect x="131" y="208" width="38" height="62" rx="15" fill="#CC9772"/><path d="M118 266 Q150 290 182 266" fill="none" stroke="#C98F25" stroke-width="8" stroke-linecap="round"/><path d="M84 150 C78 96 112 70 150 70 C188 70 222 96 216 150 L218 214 C200 226 186 222 180 212 L120 212 C114 222 100 226 82 214 Z" fill="#6A2F22"/><ellipse cx="150" cy="154" rx="54" ry="63" fill="#E6B391"/><ellipse cx="129" cy="148" rx="7" ry="8" fill="#3A2420"/><circle cx="131.4" cy="144.5" r="2.3" fill="#fff"/><path d="M119 141 Q129 135 139 141" fill="none" stroke="#2A2224" stroke-width="2.3" stroke-linecap="round"/><path d="M117 126 Q129 119 141 124" fill="none" stroke="#5A2A1E" stroke-width="3.4" stroke-linecap="round"/><ellipse cx="171" cy="148" rx="7" ry="8" fill="#3A2420"/><circle cx="173.4" cy="144.5" r="2.3" fill="#fff"/><path d="M161 141 Q171 135 181 141" fill="none" stroke="#2A2224" stroke-width="2.3" stroke-linecap="round"/><path d="M159 126 Q171 119 183 124" fill="none" stroke="#5A2A1E" stroke-width="3.4" stroke-linecap="round"/><path d="M150 152 Q146 168 150 172 Q155 172 157 169" fill="none" stroke="#CC9772" stroke-width="3" stroke-linecap="round"/><path d="M126 186 Q150 212 174 186 Q150 193 126 186 Z" fill="#fff" stroke="#C45E6E" stroke-width="3" stroke-linejoin="round"/><ellipse cx="112" cy="172" rx="10" ry="6" fill="#E98FA7" opacity="0.45"/><ellipse cx="188" cy="172" rx="10" ry="6" fill="#E98FA7" opacity="0.45"/><path d="M94 140 C92 100 116 82 150 82 C184 82 208 100 206 140 C196 126 190 120 184 122 C176 114 168 118 160 120 C152 112 146 118 138 120 C128 114 122 120 116 122 C108 118 100 128 94 140 Z" fill="#6A2F22"/><path d="M120 94 Q150 84 180 94 M92 170 C90 190 90 204 92 212 M208 170 C210 190 210 204 208 212" stroke="#93503C" stroke-width="3" fill="none" stroke-linecap="round"/><circle cx="96" cy="182" r="5" fill="none" stroke="#E2C06A" stroke-width="2.5"/><circle cx="204" cy="182" r="5" fill="none" stroke="#E2C06A" stroke-width="2.5"/></svg>
