<svg viewBox="20 40 260 300" xmlns="http://www.w3.org/2000/svg"><defs><clipPath id="shirtC"><path d="M34 340 C40 272 92 252 150 252 C208 252 260 272 266 340 Z"/></clipPath><linearGradient id="pbeard" x1="0" y1="0" x2="0" y2="1"><stop offset="0" stop-color="#3E3638" stop-opacity=".45"/><stop offset=".45" stop-color="#3E3638"/><stop offset="1" stop-color="#3E3638"/></linearGradient></defs><path d="M34 340 C40 272 92 252 150 252 C208 252 260 272 266 340 Z" fill="#1F1D22"/><g clip-path="url(#shirtC)"><path d="M50 280 Q150 274 250 280" stroke="#2C2A30" stroke-width="3" fill="none" opacity=".8"/><path d="M50 298 Q150 292 250 298" stroke="#2C2A30" stroke-width="3" fill="none" opacity=".8"/><path d="M50 316 Q150 310 250 316" stroke="#2C2A30" stroke-width="3" fill="none" opacity=".8"/><path d="M50 334 Q150 328 250 334" stroke="#2C2A30" stroke-width="3" fill="none" opacity=".8"/></g><path d="M126 250 L150 300 L174 250 Z" fill="#DCA684"/><path d="M122 250 L100 262 L128 300 L150 300 Z" fill="#2A282E" stroke="#141217" stroke-width="2" stroke-linejoin="round"/><path d="M178 250 L200 262 L172 300 L150 300 Z" fill="#2A282E" stroke="#141217" stroke-width="2" stroke-linejoin="round"/><circle cx="150" cy="318" r="3" fill="#3A3840"/><circle cx="150" cy="334" r="3" fill="#3A3840"/><rect x="128" y="204" width="44" height="52" rx="18" fill="#DCA684"/><ellipse cx="92" cy="152" rx="6.5" ry="11" fill="#DCA684"/><ellipse cx="208" cy="152" rx="6.5" ry="11" fill="#DCA684"/><path d="M93 146 q-3 6 0 12 M207 146 q3 6 0 12" stroke="#C99373" stroke-width="1.8" fill="none"/><path d="M92 140 C92 96 118 78 150 78 C182 78 208 96 208 140 C208 188 190 220 150 224 C110 220 92 188 92 140 Z" fill="#F0C8A8"/><path d="M91 146 C85 102 110 72 150 70 C190 72 215 102 209 146 C205 128 200 116 194 108 C184 101 176 99 170 103 C162 95 138 95 130 103 C124 99 116 101 106 108 C100 116 95 128 91 146 Z" fill="#3E3638"/><path d="M104 94 L110 76 L118 90 L126 68 L135 86 L145 62 L154 82 L164 64 L172 84 L182 70 L188 88 L196 94 L194 94 L106 94 Z" fill="#3E3638" stroke="#3E3638" stroke-width="4" stroke-linejoin="round"/><path d="M126 94 q3 -8 8 -12" stroke="#5A5052" stroke-width="2" fill="none" stroke-linecap="round"/><path d="M146 90 q3 -8 8 -12" stroke="#5A5052" stroke-width="2" fill="none" stroke-linecap="round"/><path d="M166 92 q3 -8 8 -12" stroke="#5A5052" stroke-width="2" fill="none" stroke-linecap="round"/><path d="M91 146 C89 128 93 116 100 106 L106 112 C100 122 97 134 97 150 Z M209 146 C211 128 207 116 200 106 L194 112 C200 122 203 134 203 150 Z" fill="#5E5658"/><path d="M98 176 C102 206 122 224 150 225 C178 224 198 206 202 176 C196 184 190 188 184 190 C174 197 162 199 150 199 C138 199 126 197 116 190 C110 188 104 184 98 176 Z" fill="url(#pbeard)"/><path d="M121 185 C131 177 144 178 150 182 C156 178 169 177 179 185 C170 187 160 189 150 189 C140 189 130 187 121 185 Z" fill="#3E3638"/><path d="M127 191 Q150 215 173 191 Z" fill="#fff" stroke="#7A4040" stroke-width="2.4" stroke-linejoin="round"/><path d="M148 140 Q145 158 142 166 Q148 172 154 170 Q158 172 160 166" fill="none" stroke="#DCA684" stroke-width="3" stroke-linecap="round" stroke-linejoin="round"/><ellipse cx="127" cy="145" rx="7" ry="7.5" fill="#3A2420"/><circle cx="129.4" cy="142" r="2.1" fill="#fff"/><path d="M115 152 Q127 143 139 152 L139 158 L115 158 Z" fill="#F0C8A8"/><path d="M116 141 Q127 133 138 141" fill="none" stroke="#2A2224" stroke-width="2.6" stroke-linecap="round"/><path d="M113 125 Q127 118 141 123" fill="none" stroke="#2A2224" stroke-width="4.5" stroke-linecap="round"/><ellipse cx="173" cy="145" rx="7" ry="7.5" fill="#3A2420"/><circle cx="175.4" cy="142" r="2.1" fill="#fff"/><path d="M161 152 Q173 143 185 152 L185 158 L161 158 Z" fill="#F0C8A8"/><path d="M162 141 Q173 133 184 141" fill="none" stroke="#2A2224" stroke-width="2.6" stroke-linecap="round"/><path d="M159 125 Q173 118 187 123" fill="none" stroke="#2A2224" stroke-width="4.5" stroke-linecap="round"/><path d="M108 144 q-5 3 -7 8 M192 144 q5 3 7 8" stroke="#DCA684" stroke-width="1.8" fill="none" stroke-linecap="round"/><ellipse cx="108" cy="168" rx="9" ry="5" fill="#E98FA7" opacity=".22"/><ellipse cx="192" cy="168" rx="9" ry="5" fill="#E98FA7" opacity=".22"/></svg>